<svg width="20" height="20" viewBox="0 0 20 20" fill="none" xmlns="http://www.w3.org/2000/svg">
<path d="M3.12451 2.22754H8.12451C8.36254 2.22754 8.59096 2.32192 8.75928 2.49023C8.92759 2.65855 9.02197 2.88697 9.02197 3.125C9.02197 3.36303 8.92759 3.59145 8.75928 3.75977C8.59096 3.92808 8.36254 4.02246 8.12451 4.02246H4.02197V15.9775H8.12451C8.36254 15.9775 8.59096 16.0719 8.75928 16.2402C8.92759 16.4085 9.02197 16.637 9.02197 16.875C9.02197 17.113 8.92759 17.3415 8.75928 17.5098C8.59096 17.6781 8.36254 17.7725 8.12451 17.7725H3.12451C2.88648 17.7725 2.65806 17.6781 2.48975 17.5098C2.32143 17.3415 2.22705 17.113 2.22705 16.875V3.125C2.22705 2.88697 2.32143 2.65855 2.48975 2.49023C2.65806 2.32192 2.88648 2.22754 3.12451 2.22754ZM13.7485 5.97656C13.987 5.97656 14.2157 6.07162 14.3843 6.24023L17.5093 9.36523C17.5928 9.44855 17.6594 9.5473 17.7046 9.65625C17.7498 9.76537 17.773 9.88285 17.7729 10.001C17.7729 10.1189 17.7498 10.2358 17.7046 10.3447C17.6593 10.4537 17.5929 10.5534 17.5093 10.6367H17.5083L14.3833 13.7617C14.2147 13.9302 13.9859 14.0254 13.7476 14.0254C13.5092 14.0253 13.2803 13.9302 13.1118 13.7617C12.9433 13.5932 12.8492 13.3643 12.8491 13.126C12.8491 12.8877 12.9434 12.6588 13.1118 12.4902L14.6372 10.9658L14.7056 10.8975H8.12451C7.88648 10.8975 7.65806 10.8031 7.48975 10.6348C7.32143 10.4665 7.22705 10.238 7.22705 10C7.22705 9.76197 7.32143 9.53355 7.48975 9.36523C7.65806 9.19692 7.88648 9.10254 8.12451 9.10254H14.7056L14.6372 9.03418L13.1128 7.51172C12.9442 7.34315 12.8492 7.11437 12.8491 6.87598C12.8491 6.63761 12.9443 6.40883 13.1128 6.24023C13.2814 6.07166 13.5101 5.97661 13.7485 5.97656Z" fill="white" stroke="white" style="fill:white;fill-opacity:1;stroke:white;stroke-opacity:1;" stroke-width="0.08"/>
</svg>
