<svg width="20" height="20" viewBox="0 0 20 20" fill="none" xmlns="http://www.w3.org/2000/svg">
<path d="M17.3301 8.63021L4.20044 1.13803C3.92361 0.982957 3.60613 0.915844 3.29023 0.945614C2.97433 0.975385 2.67497 1.10063 2.43199 1.30468C2.189 1.50874 2.0139 1.78194 1.92997 2.08794C1.84605 2.39395 1.85728 2.71825 1.96216 3.01771L4.31997 9.99896L1.96216 16.9802C1.87927 17.2157 1.85402 17.4677 1.88854 17.715C1.92305 17.9623 2.01633 18.1977 2.16055 18.4015C2.30476 18.6053 2.49572 18.7716 2.71743 18.8864C2.93914 19.0012 3.18514 19.0613 3.43482 19.0615C3.70332 19.0609 3.96719 18.9915 4.20122 18.8599L4.20826 18.8552L17.3333 11.3497C17.5739 11.2135 17.7741 11.0159 17.9134 10.777C18.0527 10.5381 18.1261 10.2665 18.1261 9.98998C18.1261 9.71345 18.0527 9.44187 17.9134 9.20298C17.7741 8.96409 17.5739 8.76644 17.3333 8.63021H17.3301ZM3.99654 16.8162L5.98247 10.9365H10.3098C10.5585 10.9365 10.7969 10.8377 10.9727 10.6619C11.1485 10.4861 11.2473 10.2476 11.2473 9.99896C11.2473 9.75032 11.1485 9.51187 10.9727 9.33605C10.7969 9.16024 10.5585 9.06146 10.3098 9.06146H5.98247L3.99576 3.18021L15.9301 9.99037L3.99654 16.8162Z" fill="white" style="fill:white;fill-opacity:1;"/>
</svg>
