<svg width="20" height="20" viewBox="0 0 20 20" fill="none" xmlns="http://www.w3.org/2000/svg">
<circle cx="2.34996" cy="2.34996" r="2.34996" transform="matrix(-1 0 0 1 12.3066 7.65027)" stroke="#543C52" style="stroke:#543C52;stroke:color(display-p3 0.3294 0.2353 0.3216);stroke-opacity:1;" stroke-width="1.8"/>
<path d="M9.95703 2.16699L9.95705 1.26699H9.95703V2.16699ZM13.4814 4.46777L13.0313 5.24711L13.0314 5.2472L13.4814 4.46777ZM15.4404 9.2168L14.5404 9.21677V9.2168H15.4404ZM13.4814 15.5322L13.0314 14.7528L13.0313 14.7529L13.4814 15.5322ZM9.95703 17.833V18.733H9.95705L9.95703 17.833ZM6.43164 15.5322L6.88164 14.7528L6.88157 14.7528L6.43164 15.5322ZM3.69043 10H4.59043L4.59043 9.99993L3.69043 10ZM6.43164 4.46777L6.88159 5.24723L6.88164 5.2472L6.43164 4.46777ZM8.14414 2.37812L7.93652 1.50239L8.14414 2.37812ZM8.14411 17.6219L8.35175 16.7462L8.14411 17.6219ZM12.3998 16.9192L13.2651 17.1664L12.3998 16.9192ZM11.7689 17.6219L11.5613 16.7462L11.7689 17.6219ZM15.073 15.2566L14.9116 16.142L15.073 15.2566ZM16.3587 7.35558L15.8105 6.64181L16.3587 7.35558ZM2.94043 11.7181L2.32787 11.0587L2.94043 11.7181ZM15.073 4.74265L14.9111 3.85733L15.073 4.74265ZM3.93113 4.99641L3.23884 4.42131L3.93113 4.99641ZM4.83949 4.74298L4.67755 5.62829V5.62829L4.83949 4.74298ZM16.7554 11.3247L17.1515 10.5165L16.7554 11.3247ZM12.3998 3.08087L13.2651 2.8336L12.3998 3.08087ZM9.95703 2.16699L9.95701 3.06699C10.5101 3.06701 11.047 3.1319 11.5612 3.25383L11.7689 2.37811L11.9765 1.50239C11.3277 1.34854 10.6514 1.26701 9.95705 1.26699L9.95703 2.16699ZM12.3998 3.08087L11.5344 3.32815C11.7571 4.10768 12.2716 4.80834 13.0313 5.24711L13.4814 4.46777L13.9316 3.68843C13.5935 3.49314 13.3651 3.18358 13.2651 2.8336L12.3998 3.08087ZM13.4814 4.46777L13.0314 5.2472C13.7254 5.64783 14.5062 5.7612 15.2349 5.62797L15.073 4.74265L14.9111 3.85733C14.5844 3.91707 14.2397 3.86634 13.9314 3.68835L13.4814 4.46777ZM15.981 4.99577L15.2895 5.57179C15.5504 5.88504 15.7841 6.221 15.9869 6.57628L16.7686 6.13016L17.5502 5.68404C17.2944 5.23586 17.0001 4.81309 16.6725 4.41976L15.981 4.99577ZM16.3587 7.35558L15.8105 6.64181C15.0401 7.23348 14.5405 8.16617 14.5404 9.21677L15.4404 9.2168L16.3404 9.21682C16.3404 8.74969 16.5606 8.33534 16.9069 8.06936L16.3587 7.35558ZM15.4404 9.2168H14.5404C14.5404 10.4999 15.284 11.6057 16.3592 12.1328L16.7554 11.3247L17.1515 10.5165C16.669 10.28 16.3404 9.78659 16.3404 9.2168H15.4404ZM17.4004 12.4425L16.5453 12.1618C16.2709 12.9978 15.8409 13.7641 15.2889 14.4275L15.9808 15.0031L16.6727 15.5787C17.3664 14.7448 17.9088 13.7792 18.2555 12.7232L17.4004 12.4425ZM15.073 15.2566L15.2343 14.3712C14.5055 14.2384 13.7248 14.3525 13.0314 14.7528L13.4814 15.5322L13.9314 16.3116C14.24 16.1335 14.585 16.0825 14.9116 16.142L15.073 15.2566ZM13.4814 15.5322L13.0313 14.7529C12.2716 15.1917 11.7571 15.8924 11.5344 16.6719L12.3998 16.9192L13.2651 17.1664C13.3652 16.8164 13.5935 16.5068 13.9316 16.3116L13.4814 15.5322ZM11.7689 17.6219L11.5613 16.7462C11.047 16.8681 10.5101 16.933 9.95701 16.933L9.95703 17.833L9.95705 18.733C10.6515 18.733 11.3277 18.6515 11.9766 18.4976L11.7689 17.6219ZM9.95703 17.833V16.933C9.40355 16.933 8.86623 16.8681 8.35175 16.7462L8.14411 17.6219L7.93647 18.4976C8.58576 18.6516 9.26242 18.733 9.95703 18.733V17.833ZM7.51336 16.9192L8.37876 16.672C8.15609 15.8924 7.64167 15.1916 6.88164 14.7528L6.43164 15.5322L5.98164 16.3116C6.31976 16.5069 6.54799 16.8163 6.64796 17.1664L7.51336 16.9192ZM6.43164 15.5322L6.88157 14.7528C6.18825 14.3526 5.40743 14.2379 4.67814 14.3709L4.83953 15.2563L5.00092 16.1417C5.32733 16.0822 5.67254 16.1332 5.98171 16.3117L6.43164 15.5322ZM3.93114 15.0027L4.62334 14.4274C4.12509 13.8279 3.72669 13.1436 3.45231 12.3997L2.60791 12.7111L1.76351 13.0225C2.10972 13.9612 2.61198 14.8234 3.23895 15.5779L3.93114 15.0027ZM2.94043 11.7181L3.55299 12.3774C4.18908 11.7865 4.59043 10.9404 4.59043 10H3.69043H2.79043C2.79043 10.4179 2.61394 10.7929 2.32787 11.0587L2.94043 11.7181ZM3.69043 10L4.59043 9.99993C4.59036 9.06036 4.19006 8.21386 3.55434 7.62236L2.94127 8.28125L2.3282 8.94015C2.61389 9.20597 2.7904 9.58167 2.79043 10.0001L3.69043 10ZM2.60893 7.28786L3.45336 7.59921C3.72773 6.85505 4.12564 6.17073 4.62342 5.5715L3.93113 4.99641L3.23884 4.42131C2.61195 5.17596 2.11043 6.03827 1.7645 6.97651L2.60893 7.28786ZM4.83949 4.74298L4.67755 5.62829C5.40671 5.76167 6.18771 5.64778 6.88159 5.24723L6.43164 4.46777L5.98169 3.68832C5.67283 3.86662 5.32797 3.9174 5.00144 3.85767L4.83949 4.74298ZM6.43164 4.46777L6.88164 5.2472C7.64166 4.8084 8.1561 4.10765 8.37877 3.32799L7.51337 3.08083L6.64797 2.83368C6.54802 3.18368 6.3198 3.49311 5.98164 3.68835L6.43164 4.46777ZM8.14414 2.37812L8.35177 3.25384C8.86626 3.13186 9.40361 3.06699 9.95703 3.06699V2.16699V1.26699C9.26245 1.26699 8.58578 1.34846 7.93652 1.50239L8.14414 2.37812ZM7.51337 3.08083L8.37877 3.32799C8.38752 3.29735 8.39798 3.2712 8.40836 3.25063C8.41881 3.22992 8.42715 3.21884 8.43027 3.21512C8.43318 3.21165 8.42871 3.21791 8.41433 3.22735C8.39893 3.23747 8.37727 3.24779 8.35177 3.25384L8.14414 2.37812L7.93652 1.50239C7.15635 1.68736 6.78384 2.35796 6.64797 2.83368L7.51337 3.08083ZM2.94127 8.28125L3.55434 7.62236C3.52783 7.59769 3.50608 7.57243 3.48988 7.54939C3.47354 7.52615 3.46617 7.50995 3.46363 7.50322C3.46122 7.49684 3.46506 7.5042 3.46578 7.52391C3.46657 7.54543 3.46321 7.57249 3.45336 7.59921L2.60893 7.28786L1.7645 6.97651C1.45054 7.82802 1.93104 8.57062 2.3282 8.94015L2.94127 8.28125ZM4.83953 15.2563L4.67814 14.3709C4.64685 14.3766 4.61883 14.3788 4.59584 14.3786C4.57269 14.3784 4.55907 14.3758 4.55434 14.3747C4.54992 14.3736 4.55743 14.3748 4.57215 14.3834C4.58793 14.3927 4.60668 14.4074 4.62334 14.4274L3.93114 15.0027L3.23895 15.5779C3.75026 16.1932 4.51458 16.2304 5.00092 16.1417L4.83953 15.2563ZM8.14411 17.6219L8.35175 16.7462C8.37725 16.7522 8.39891 16.7625 8.41431 16.7726C8.42868 16.7821 8.43315 16.7884 8.43025 16.7849C8.42713 16.7812 8.41879 16.7701 8.40835 16.7494C8.39797 16.7288 8.38751 16.7027 8.37876 16.672L7.51336 16.9192L6.64796 17.1664C6.78383 17.6421 7.15635 18.3126 7.93647 18.4976L8.14411 17.6219ZM12.3998 16.9192L11.5344 16.6719C11.5256 16.7025 11.5152 16.7287 11.5048 16.7493C11.4943 16.77 11.486 16.7811 11.4829 16.7848C11.4799 16.7883 11.4844 16.7821 11.4987 16.7726C11.5141 16.7625 11.5358 16.7522 11.5613 16.7462L11.7689 17.6219L11.9766 18.4976C12.7567 18.3126 13.1292 17.6421 13.2651 17.1664L12.3998 16.9192ZM15.9808 15.0031L15.2889 14.4275C15.3056 14.4076 15.3242 14.3929 15.34 14.3837C15.3546 14.3751 15.3621 14.3739 15.3577 14.375C15.353 14.3761 15.3394 14.3787 15.3163 14.3789C15.2934 14.3791 15.2655 14.3769 15.2343 14.3712L15.073 15.2566L14.9116 16.142C15.3981 16.2307 16.1616 16.1931 16.6727 15.5787L15.9808 15.0031ZM16.7686 6.13016L15.9869 6.57628C15.9701 6.54686 15.961 6.51135 15.9603 6.48096C15.9596 6.45474 15.9653 6.44802 15.9593 6.4634C15.9532 6.47909 15.9388 6.50742 15.9108 6.54304C15.8831 6.57827 15.8484 6.61266 15.8105 6.64181L16.3587 7.35558L16.9069 8.06936C17.207 7.83884 17.483 7.511 17.6366 7.11665C17.7953 6.70903 17.8349 6.18279 17.5502 5.68404L16.7686 6.13016ZM2.60791 12.7111L3.45231 12.3997C3.46217 12.4264 3.46554 12.4535 3.46475 12.4751C3.46402 12.4949 3.46017 12.5023 3.46255 12.496C3.46506 12.4894 3.47239 12.4733 3.48869 12.4501C3.50485 12.4272 3.52654 12.402 3.55299 12.3774L2.94043 11.7181L2.32787 11.0587C1.93015 11.4282 1.44939 12.1709 1.76351 13.0225L2.60791 12.7111ZM15.073 4.74265L15.2349 5.62797C15.266 5.62228 15.2939 5.6201 15.3167 5.62029C15.3398 5.62048 15.3533 5.62302 15.358 5.62417C15.3624 5.62524 15.355 5.62404 15.3404 5.61548C15.3247 5.60632 15.306 5.5917 15.2895 5.57179L15.981 4.99577L16.6725 4.41976C16.1612 3.80594 15.398 3.7683 14.9111 3.85733L15.073 4.74265ZM3.93113 4.99641L4.62342 5.5715C4.60674 5.59158 4.58796 5.60635 4.57213 5.61562C4.55735 5.62427 4.54978 5.6255 4.55415 5.62444C4.55882 5.62331 4.57237 5.62076 4.59545 5.62057C4.61838 5.62038 4.64633 5.62258 4.67755 5.62829L4.83949 4.74298L5.00144 3.85767C4.51486 3.76866 3.75023 3.80572 3.23884 4.42131L3.93113 4.99641ZM16.7554 11.3247L16.3592 12.1328C16.4024 12.154 16.4433 12.1809 16.4775 12.2099C16.512 12.2393 16.5318 12.2642 16.5409 12.2783C16.5498 12.2921 16.5428 12.2866 16.5382 12.2607C16.5329 12.2306 16.5347 12.194 16.5453 12.1618L17.4004 12.4425L18.2555 12.7232C18.4344 12.1782 18.2908 11.6711 18.0542 11.3037C17.8254 10.9484 17.4904 10.6826 17.1515 10.5165L16.7554 11.3247ZM11.7689 2.37811L11.5612 3.25383C11.5358 3.24779 11.5141 3.23747 11.4987 3.22736C11.4844 3.21793 11.4799 3.21169 11.4828 3.21517C11.486 3.2189 11.4943 3.23 11.5048 3.25073C11.5152 3.27132 11.5256 3.29749 11.5344 3.32815L12.3998 3.08087L13.2651 2.8336C13.1292 2.35794 12.7567 1.68737 11.9765 1.50239L11.7689 2.37811Z" fill="#543C52" style="fill:#543C52;fill:color(display-p3 0.3294 0.2353 0.3216);fill-opacity:1;"/>
</svg>
